<svg width="130" height="130" viewBox="0 0 130 130" fill="none" xmlns="http://www.w3.org/2000/svg">
<path fill-rule="evenodd" clip-rule="evenodd" d="M46.9313 56.8069C43.8016 55.0998 40.1838 54.5865 36.1225 55.7748C23.5591 59.4512 18.4768 69.2893 17.7906 80.9517C16.7892 97.9809 25.3024 118.937 32.9118 129.353C33.2716 129.847 33.9635 129.953 34.4544 129.593C34.9481 129.233 35.0568 128.541 34.697 128.048C27.3107 117.939 19.0263 97.6072 19.997 81.0801C20.6274 70.3717 25.2048 61.2727 36.7445 57.8975C40.1782 56.8906 43.2298 57.334 45.8797 58.7706C44.9676 60.5167 44.1168 62.2657 43.3302 64.0146C41.16 68.843 37.916 82.2488 39.1266 92.1064C39.9969 99.1775 43.1517 104.419 50.047 104.235C53.8796 104.132 56.6522 101.744 58.3481 97.9447C60.6829 92.7229 60.945 84.723 59.3021 77.0578C57.9353 70.6757 55.2576 64.5363 51.4585 60.4163C50.6216 59.5126 49.7345 58.7008 48.7945 58.0035C61.9046 34.026 86.2587 11.605 111.268 2.14895C111.837 1.93138 112.127 1.29544 111.91 0.723619C111.695 0.151796 111.056 -0.135526 110.487 0.0792562C85.0704 9.69146 60.312 32.4389 46.9313 56.8069ZM47.7373 59.9868C46.8838 61.6297 46.0861 63.2754 45.3469 64.9212C43.2688 69.5487 40.1614 82.391 41.3218 91.8359C42.0331 97.6322 44.3372 102.176 49.9885 102.025C52.9564 101.945 55.0148 99.9837 56.3314 97.0437C57.7763 93.808 58.3287 89.4259 58.0971 84.7537C57.7457 77.6603 55.5784 69.9003 51.8071 64.408C50.6133 62.6674 49.2548 61.1583 47.7373 59.9868Z" fill="#027A79" fill-opacity="0.5"/>
<path fill-rule="evenodd" clip-rule="evenodd" d="M91.5062 38.3321C93.7322 25.3336 102.229 11.4927 111.386 1.90834C111.807 1.46762 111.791 0.767459 111.35 0.346263C110.909 -0.0749336 110.209 -0.060954 109.788 0.379768C100.343 10.2625 91.6234 24.5581 89.3277 37.9583C89.2245 38.558 89.629 39.1298 90.2315 39.2331C90.8313 39.3363 91.403 38.9318 91.5062 38.3321Z" fill="#027A79" fill-opacity="0.5"/>
<path fill-rule="evenodd" clip-rule="evenodd" d="M109.645 0.146652C100.111 5.59152 85.4866 6.34468 74.8256 3.58598C74.2342 3.43256 73.6289 3.78684 73.4783 4.37819C73.3249 4.96954 73.6791 5.572 74.2704 5.72541C85.4391 8.61521 100.753 7.77006 110.742 2.06578C111.272 1.76453 111.456 1.08667 111.155 0.556683C110.85 0.0267009 110.175 -0.15739 109.645 0.146652Z" fill="#027A79" fill-opacity="0.5"/>
</svg>
