<svg width="212" height="130" viewBox="0 0 212 130" fill="none" xmlns="http://www.w3.org/2000/svg">
<g clip-path="url(#clip0_498_337)">
<path fill-rule="evenodd" clip-rule="evenodd" d="M144.682 104.89C142.454 103.288 140.649 101.379 139.293 99.156C139.021 98.7132 138.39 98.5443 137.879 98.7817C137.373 99.019 137.18 99.5715 137.451 100.019C138.943 102.452 140.915 104.543 143.357 106.301C143.801 106.62 144.463 106.565 144.828 106.177C145.194 105.785 145.126 105.209 144.682 104.89Z" fill="#027A79" fill-opacity="0.10"/>
<path fill-rule="evenodd" clip-rule="evenodd" d="M143.494 98.6493C143.609 100.494 143.713 102.338 143.844 104.182C143.88 104.685 144.376 105.068 144.95 105.036C145.524 105.004 145.962 104.57 145.926 104.068C145.795 102.228 145.691 100.389 145.576 98.5443C145.545 98.0435 145.049 97.6577 144.475 97.686C143.901 97.7143 143.458 98.1457 143.494 98.6493Z" fill="#027A79" fill-opacity="0.10"/>
<path fill-rule="evenodd" clip-rule="evenodd" d="M151.24 99.0236C149.904 100.786 148.391 102.411 146.868 104.054C146.503 104.447 146.57 105.022 147.019 105.337C147.468 105.657 148.125 105.598 148.485 105.205C150.051 103.52 151.605 101.845 152.983 100.033C153.301 99.6125 153.165 99.0465 152.685 98.768C152.21 98.4895 151.558 98.6036 151.24 99.0236Z" fill="#027A79" fill-opacity="0.10"/>
<path fill-rule="evenodd" clip-rule="evenodd" d="M156.414 105.575C152.793 105.716 148.948 105.721 145.327 105.52C144.753 105.493 144.257 105.871 144.221 106.378C144.184 106.88 144.622 107.314 145.196 107.346C148.89 107.547 152.814 107.542 156.508 107.401C157.082 107.378 157.53 106.949 157.504 106.447C157.478 105.945 156.988 105.552 156.414 105.575Z" fill="#027A79" fill-opacity="0.10"/>
<path fill-rule="evenodd" clip-rule="evenodd" d="M143.354 106.154C145.587 108.547 147.899 110.893 149.97 113.395C150.309 113.801 150.961 113.892 151.431 113.596C151.895 113.299 152 112.728 151.66 112.322C149.563 109.793 147.226 107.419 144.967 104.999C144.601 104.611 143.944 104.552 143.5 104.872C143.052 105.191 142.989 105.766 143.354 106.154Z" fill="#027A79" fill-opacity="0.10"/>
<path fill-rule="evenodd" clip-rule="evenodd" d="M144.031 106.849C144.615 109.341 144.777 111.724 144.818 114.249C144.824 114.751 145.298 115.153 145.872 115.148C146.451 115.139 146.911 114.728 146.9 114.221C146.858 111.578 146.686 109.09 146.076 106.479C145.956 105.986 145.408 105.666 144.839 105.771C144.276 105.872 143.911 106.356 144.031 106.849Z" fill="#027A79" fill-opacity="0.10"/>
<path fill-rule="evenodd" clip-rule="evenodd" d="M144.125 106.648C142.434 109.606 141.563 112.893 139.753 115.787C139.476 116.226 139.664 116.782 140.17 117.024C140.676 117.266 141.307 117.102 141.584 116.664C143.405 113.751 144.286 110.446 145.993 107.465C146.248 107.013 146.039 106.465 145.528 106.237C145.012 106.013 144.386 106.196 144.125 106.648Z" fill="#027A79" fill-opacity="0.10"/>
<path fill-rule="evenodd" clip-rule="evenodd" d="M145.055 105.976C141.69 106.497 138.33 106.734 134.944 107.086C134.37 107.145 133.963 107.597 134.031 108.099C134.099 108.602 134.615 108.958 135.189 108.898C138.612 108.547 142.013 108.3 145.42 107.775C145.984 107.684 146.365 107.209 146.266 106.716C146.161 106.218 145.624 105.885 145.055 105.976Z" fill="#027A79" fill-opacity="0.10"/>
<path fill-rule="evenodd" clip-rule="evenodd" d="M147.397 104.589C146.703 104.561 146.045 104.52 145.367 104.434C144.793 104.36 144.266 104.707 144.183 105.205C144.099 105.703 144.496 106.168 145.064 106.241C145.816 106.337 146.541 106.383 147.303 106.41C147.877 106.433 148.367 106.045 148.388 105.538C148.414 105.036 147.971 104.612 147.397 104.589Z" fill="#027A79" fill-opacity="0.10"/>
</g>
<g clip-path="url(#clip1_498_337)">
<path fill-rule="evenodd" clip-rule="evenodd" d="M16.6742 93.2883C17.6111 92.9544 18.5971 92.5107 19.3574 91.8683C20.2604 91.1053 20.6276 90.1227 20.8742 89.0883C21.1909 87.7594 21.3174 86.3437 21.7013 85.0127C21.8435 84.5183 22.117 84.3315 22.2344 84.2486C22.5311 84.0391 22.831 83.9831 23.1131 84.0041C23.4475 84.0284 23.9069 84.1549 24.2089 84.7154C24.252 84.7956 24.308 84.9179 24.3457 85.0853C24.3731 85.2081 24.3909 85.592 24.42 85.7503C24.4927 86.1402 24.5535 86.53 24.6106 86.922C24.8007 88.2267 24.91 89.3349 25.5104 90.5335C26.3251 92.1607 27.1414 93.1563 28.2485 93.5973C29.3189 94.0238 30.5989 93.9436 32.2342 93.6092C32.3898 93.5715 32.5438 93.5392 32.6961 93.5128C33.4171 93.3868 34.1064 93.8601 34.248 94.5784C34.3896 95.2962 33.9314 95.9957 33.2169 96.1534C33.0677 96.1863 32.9207 96.2175 32.7753 96.246C30.5655 96.7931 28.0072 98.7456 26.5205 100.455C26.0623 100.982 25.3914 102.456 24.707 103.396C24.2019 104.09 23.6344 104.547 23.1578 104.708C22.8385 104.817 22.5693 104.801 22.3469 104.746C22.0239 104.666 21.7557 104.491 21.55 104.213C21.438 104.06 21.3341 103.856 21.2845 103.595C21.2608 103.47 21.2582 103.151 21.2587 103.007C21.1192 102.527 20.9485 102.059 20.8242 101.575C20.5275 100.42 19.9454 99.6884 19.254 98.7224C18.6073 97.8183 17.9127 97.2503 16.8945 96.7969C16.762 96.7646 15.6932 96.5029 15.3157 96.3526C14.7643 96.1324 14.5015 95.7636 14.4062 95.5649C14.2442 95.2278 14.2275 94.9333 14.2598 94.6877C14.3077 94.3254 14.4703 94.0152 14.7589 93.7648C14.9377 93.6092 15.2048 93.4579 15.5623 93.3841C15.8386 93.3265 16.5714 93.2931 16.6742 93.2883ZM22.9446 91.4058C22.9942 91.5162 23.0469 91.6271 23.1029 91.7391C24.2962 94.1223 25.6305 95.4529 27.2523 96.0985L27.3067 96.1195C26.2217 96.925 25.2395 97.8253 24.4889 98.6885C24.1798 99.0439 23.7706 99.7821 23.3285 100.539C22.9269 99.2334 22.2699 98.3105 21.4439 97.1555C20.8129 96.274 20.1516 95.6107 19.3391 95.0701C19.9696 94.7464 20.5711 94.3674 21.095 93.9247C21.9673 93.1876 22.544 92.3336 22.9446 91.4058Z" fill="#027A79" fill-opacity="0.10"/>
</g>
<g clip-path="url(#clip2_498_337)">
<path fill-rule="evenodd" clip-rule="evenodd" d="M96.6742 18.2883C97.6111 17.9544 98.5971 17.5107 99.3574 16.8683C100.26 16.1053 100.628 15.1227 100.874 14.0883C101.191 12.7594 101.317 11.3437 101.701 10.0127C101.843 9.51834 102.117 9.33149 102.234 9.24857C102.531 9.03911 102.831 8.98312 103.113 9.00412C103.448 9.02835 103.907 9.15488 104.209 9.71542C104.252 9.79565 104.308 9.91789 104.346 10.0853C104.373 10.2081 104.391 10.592 104.42 10.7503C104.493 11.1402 104.554 11.53 104.611 11.922C104.801 13.2267 104.91 14.3349 105.51 15.5335C106.325 17.1607 107.141 18.1563 108.248 18.5973C109.319 19.0238 110.599 18.9436 112.234 18.6092C112.39 18.5715 112.544 18.5392 112.696 18.5128C113.417 18.3868 114.106 18.8601 114.248 19.5784C114.39 20.2962 113.931 20.9957 113.217 21.1534C113.068 21.1863 112.921 21.2175 112.775 21.246C110.565 21.7931 108.007 23.7456 106.521 25.4552C106.062 25.9824 105.391 27.4561 104.707 28.3963C104.202 29.0898 103.634 29.547 103.158 29.7085C102.839 29.8173 102.569 29.8006 102.347 29.7457C102.024 29.666 101.756 29.4909 101.55 29.2126C101.438 29.0602 101.334 28.8561 101.285 28.5955C101.261 28.47 101.258 28.1513 101.259 28.007C101.119 27.5272 100.949 27.0587 100.824 26.5746C100.527 25.4196 99.9454 24.6884 99.254 23.7224C98.6073 22.8183 97.9127 22.2503 96.8945 21.7969C96.762 21.7646 95.6932 21.5029 95.3157 21.3526C94.7643 21.1324 94.5015 20.7636 94.4062 20.5649C94.2442 20.2278 94.2275 19.9333 94.2598 19.6877C94.3077 19.3254 94.4703 19.0152 94.7589 18.7648C94.9377 18.6092 95.2048 18.4579 95.5623 18.3841C95.8386 18.3265 96.5714 18.2931 96.6742 18.2883ZM102.945 16.4058C102.994 16.5162 103.047 16.6271 103.103 16.7391C104.296 19.1223 105.63 20.4529 107.252 21.0985L107.307 21.1195C106.222 21.925 105.24 22.8253 104.489 23.6885C104.18 24.0439 103.771 24.7821 103.329 25.5392C102.927 24.2334 102.27 23.3105 101.444 22.1555C100.813 21.274 100.152 20.6107 99.3391 20.0701C99.9696 19.7464 100.571 19.3674 101.095 18.9247C101.967 18.1876 102.544 17.3336 102.945 16.4058Z" fill="#027A79" fill-opacity="0.10"/>
</g>
<path fill-rule="evenodd" clip-rule="evenodd" d="M8.03007 46.5971C5.73842 46.0835 3.33913 45.8244 1.01167 45.5871C0.510372 45.5373 0.0449503 45.815 0.0091432 46.2062C-0.062471 46.5977 0.29581 46.9557 0.761302 47.0055C3.01715 47.234 5.3444 47.4785 7.52863 47.9729C7.99412 48.0802 8.49563 47.8594 8.63886 47.4796C8.78209 47.1002 8.49556 46.7047 8.03007 46.5971Z" fill="#027A79" fill-opacity="0.10"/>
<path fill-rule="evenodd" clip-rule="evenodd" d="M14.9763 39.3155C11.2882 36.3096 7.1346 33.6907 3.51808 30.6042C3.19582 30.3159 2.62291 30.3005 2.26483 30.5696C1.90676 30.839 1.8711 31.2919 2.22917 31.5802C5.84568 34.6756 9.9993 37.3031 13.6874 40.3178C14.0455 40.5992 14.6183 40.6032 14.9763 40.3264C15.2986 40.0499 15.3344 39.5969 14.9763 39.3155Z" fill="#027A79" fill-opacity="0.10"/>
<path fill-rule="evenodd" clip-rule="evenodd" d="M21.8876 27.7538C21.9951 29.4742 22.1023 31.1946 22.2097 32.9153C22.2097 33.3094 22.6396 33.6136 23.1409 33.5945C23.6422 33.575 24 33.2396 24 32.8452C23.8926 31.1219 23.7854 29.399 23.678 27.676C23.6422 27.2819 23.2124 26.9796 22.7111 27.0011C22.2456 27.0225 21.8518 27.36 21.8876 27.7538Z" fill="#027A79" fill-opacity="0.10"/>
<path fill-rule="evenodd" clip-rule="evenodd" d="M112.03 91.5971C109.738 91.0835 107.339 90.8244 105.012 90.5871C104.51 90.5373 104.045 90.815 104.009 91.2062C103.938 91.5977 104.296 91.9557 104.761 92.0055C107.017 92.234 109.344 92.4785 111.529 92.9729C111.994 93.0802 112.496 92.8594 112.639 92.4796C112.782 92.1002 112.496 91.7047 112.03 91.5971Z" fill="#027A79" fill-opacity="0.10"/>
<path fill-rule="evenodd" clip-rule="evenodd" d="M118.976 84.3155C115.288 81.3096 111.135 78.6907 107.518 75.6042C107.196 75.3159 106.623 75.3005 106.265 75.5696C105.907 75.839 105.871 76.2919 106.229 76.5802C109.846 79.6756 113.999 82.3031 117.687 85.3178C118.046 85.5992 118.618 85.6032 118.976 85.3264C119.299 85.0499 119.334 84.5969 118.976 84.3155Z" fill="#027A79" fill-opacity="0.10"/>
<path fill-rule="evenodd" clip-rule="evenodd" d="M125.888 72.7538C125.995 74.4742 126.102 76.1946 126.21 77.9153C126.21 78.3094 126.64 78.6136 127.141 78.5945C127.642 78.575 128 78.2396 128 77.8452C127.893 76.1219 127.785 74.399 127.678 72.676C127.642 72.2819 127.212 71.9796 126.711 72.0011C126.246 72.0225 125.852 72.36 125.888 72.7538Z" fill="#027A79" fill-opacity="0.10"/>
<g clip-path="url(#clip3_498_337)">
<path fill-rule="evenodd" clip-rule="evenodd" d="M61.6822 58.8899C59.4544 57.2875 57.6492 55.3793 56.2927 53.156C56.0214 52.7132 55.3901 52.5443 54.8788 52.7817C54.3727 53.019 54.1796 53.5715 54.451 54.0188C55.9431 56.4521 57.9153 58.543 60.3571 60.3006C60.8006 60.6202 61.4631 60.5654 61.8284 60.1773C62.1936 59.7847 62.1257 59.2095 61.6822 58.8899Z" fill="#027A79" fill-opacity="0.10"/>
<path fill-rule="evenodd" clip-rule="evenodd" d="M60.4943 52.6493C60.6091 54.4936 60.7134 56.338 60.8439 58.1823C60.8804 58.6845 61.3761 59.068 61.95 59.036C62.5239 59.0041 62.9621 58.5704 62.9256 58.0682C62.7952 56.2284 62.6908 54.3886 62.576 52.5443C62.5447 52.0435 62.0491 51.6577 61.4752 51.686C60.9013 51.7143 60.4578 52.1457 60.4943 52.6493Z" fill="#027A79" fill-opacity="0.10"/>
<path fill-rule="evenodd" clip-rule="evenodd" d="M68.24 53.0236C66.9044 54.7858 65.3914 56.411 63.8679 58.0545C63.5027 58.4471 63.5705 59.0223 64.0192 59.3373C64.4679 59.6569 65.1253 59.5975 65.4853 59.2049C67.0505 57.5204 68.6053 55.8449 69.9827 54.0325C70.3009 53.6125 70.1652 53.0465 69.6852 52.768C69.2105 52.4895 68.5583 52.6036 68.24 53.0236Z" fill="#027A79" fill-opacity="0.10"/>
<path fill-rule="evenodd" clip-rule="evenodd" d="M73.4138 59.5747C69.7929 59.7163 65.9477 59.7208 62.3268 59.52C61.7529 59.4926 61.2573 59.8715 61.2208 60.3782C61.1842 60.8804 61.6225 61.3141 62.1964 61.346C65.8903 61.5469 69.8138 61.5423 73.5077 61.4008C74.0817 61.378 74.5303 60.9489 74.5042 60.4467C74.4781 59.9445 73.9877 59.5519 73.4138 59.5747Z" fill="#027A79" fill-opacity="0.10"/>
<path fill-rule="evenodd" clip-rule="evenodd" d="M60.3544 60.1544C62.5874 62.5466 64.8987 64.8931 66.97 67.3949C67.3092 67.8012 67.9614 67.8925 68.4309 67.5957C68.8953 67.299 68.9996 66.7283 68.6605 66.322C66.5631 63.7929 64.2257 61.419 61.9666 58.9994C61.6014 58.6114 60.9439 58.552 60.5005 58.8716C60.0518 59.1912 59.9891 59.7664 60.3544 60.1544Z" fill="#027A79" fill-opacity="0.10"/>
<path fill-rule="evenodd" clip-rule="evenodd" d="M61.0305 60.8486C61.6149 63.3412 61.7766 65.7243 61.8184 68.2488C61.8236 68.751 62.2984 69.1527 62.8723 69.1482C63.4514 69.139 63.9105 68.7282 63.9001 68.2214C63.8583 65.5782 63.6862 63.0901 63.0758 60.4788C62.9558 59.9858 62.4079 59.6662 61.8392 59.7712C61.2758 59.8716 60.9105 60.3556 61.0305 60.8486Z" fill="#027A79" fill-opacity="0.10"/>
<path fill-rule="evenodd" clip-rule="evenodd" d="M61.1247 60.6477C59.4343 63.6059 58.563 66.8929 56.7525 69.7873C56.476 70.2255 56.6638 70.7825 57.1699 71.0244C57.676 71.2664 58.3073 71.102 58.5839 70.6637C60.4047 67.7511 61.2864 64.4459 62.9925 61.4648C63.2482 61.0129 63.0395 60.4651 62.5282 60.2368C62.0116 60.0131 61.3856 60.1957 61.1247 60.6477Z" fill="#027A79" fill-opacity="0.10"/>
<path fill-rule="evenodd" clip-rule="evenodd" d="M62.055 59.9765C58.6898 60.4969 55.3298 60.7343 51.9437 61.0858C51.3698 61.1452 50.9629 61.5972 51.0307 62.0993C51.0985 62.6015 51.6151 62.9576 52.189 62.8982C55.6116 62.5467 59.0133 62.3002 62.4203 61.7752C62.9838 61.6839 63.3646 61.2091 63.2655 60.7161C63.1612 60.2184 62.6237 59.8852 62.055 59.9765Z" fill="#027A79" fill-opacity="0.10"/>
<path fill-rule="evenodd" clip-rule="evenodd" d="M64.3967 58.5888C63.7027 58.5614 63.0454 58.5203 62.3671 58.4335C61.7932 58.3605 61.2662 58.7075 61.1827 59.2051C61.0993 59.7027 61.4957 60.1683 62.0644 60.2414C62.8157 60.3372 63.541 60.3829 64.3027 60.4103C64.8766 60.4331 65.367 60.0451 65.3879 59.5383C65.414 59.0361 64.9706 58.6116 64.3967 58.5888Z" fill="#027A79" fill-opacity="0.10"/>
</g>
<g clip-path="url(#clip4_498_337)">
<path fill-rule="evenodd" clip-rule="evenodd" d="M198.682 39.8899C196.454 38.2875 194.649 36.3793 193.293 34.156C193.021 33.7132 192.39 33.5443 191.879 33.7817C191.373 34.019 191.18 34.5715 191.451 35.0188C192.943 37.4521 194.915 39.543 197.357 41.3006C197.8 41.6202 198.463 41.5654 198.828 41.1773C199.194 40.7847 199.126 40.2095 198.682 39.8899Z" fill="#027A79" fill-opacity="0.10"/>
<path fill-rule="evenodd" clip-rule="evenodd" d="M197.494 33.6493C197.609 35.4936 197.713 37.338 197.844 39.1823C197.88 39.6845 198.376 40.068 198.95 40.036C199.524 40.0041 199.962 39.5704 199.926 39.0682C199.795 37.2284 199.691 35.3886 199.576 33.5443C199.545 33.0435 199.049 32.6577 198.475 32.686C197.901 32.7143 197.458 33.1457 197.494 33.6493Z" fill="#027A79" fill-opacity="0.10"/>
<path fill-rule="evenodd" clip-rule="evenodd" d="M205.24 34.0236C203.904 35.7858 202.391 37.411 200.868 39.0545C200.503 39.4471 200.57 40.0223 201.019 40.3373C201.468 40.6569 202.125 40.5975 202.485 40.2049C204.051 38.5204 205.605 36.8449 206.983 35.0325C207.301 34.6125 207.165 34.0465 206.685 33.768C206.21 33.4895 205.558 33.6036 205.24 34.0236Z" fill="#027A79" fill-opacity="0.10"/>
<path fill-rule="evenodd" clip-rule="evenodd" d="M210.414 40.5747C206.793 40.7163 202.948 40.7208 199.327 40.52C198.753 40.4926 198.257 40.8715 198.221 41.3782C198.184 41.8804 198.623 42.3141 199.196 42.346C202.89 42.5469 206.814 42.5423 210.508 42.4008C211.082 42.378 211.53 41.9489 211.504 41.4467C211.478 40.9445 210.988 40.5519 210.414 40.5747Z" fill="#027A79" fill-opacity="0.10"/>
<path fill-rule="evenodd" clip-rule="evenodd" d="M197.354 41.1544C199.587 43.5466 201.899 45.8931 203.97 48.3949C204.309 48.8012 204.961 48.8925 205.431 48.5957C205.895 48.299 206 47.7283 205.66 47.322C203.563 44.7929 201.226 42.419 198.967 39.9994C198.601 39.6114 197.944 39.552 197.5 39.8716C197.052 40.1912 196.989 40.7664 197.354 41.1544Z" fill="#027A79" fill-opacity="0.10"/>
<path fill-rule="evenodd" clip-rule="evenodd" d="M198.031 41.8486C198.615 44.3412 198.777 46.7243 198.818 49.2488C198.824 49.751 199.298 50.1527 199.872 50.1482C200.451 50.139 200.911 49.7282 200.9 49.2214C200.858 46.5782 200.686 44.0901 200.076 41.4788C199.956 40.9858 199.408 40.6662 198.839 40.7712C198.276 40.8716 197.911 41.3556 198.031 41.8486Z" fill="#027A79" fill-opacity="0.10"/>
<path fill-rule="evenodd" clip-rule="evenodd" d="M198.125 41.6477C196.434 44.6059 195.563 47.8929 193.753 50.7873C193.476 51.2255 193.664 51.7825 194.17 52.0244C194.676 52.2664 195.307 52.102 195.584 51.6637C197.405 48.7511 198.286 45.4459 199.993 42.4648C200.248 42.0129 200.039 41.4651 199.528 41.2368C199.012 41.0131 198.386 41.1957 198.125 41.6477Z" fill="#027A79" fill-opacity="0.10"/>
<path fill-rule="evenodd" clip-rule="evenodd" d="M199.055 40.9765C195.69 41.4969 192.33 41.7343 188.944 42.0858C188.37 42.1452 187.963 42.5972 188.031 43.0993C188.099 43.6015 188.615 43.9576 189.189 43.8982C192.612 43.5467 196.013 43.3002 199.42 42.7752C199.984 42.6839 200.365 42.2091 200.266 41.7161C200.161 41.2184 199.624 40.8852 199.055 40.9765Z" fill="#027A79" fill-opacity="0.10"/>
<path fill-rule="evenodd" clip-rule="evenodd" d="M201.397 39.5888C200.703 39.5614 200.045 39.5203 199.367 39.4335C198.793 39.3605 198.266 39.7075 198.183 40.2051C198.099 40.7027 198.496 41.1683 199.064 41.2414C199.816 41.3372 200.541 41.3829 201.303 41.4103C201.877 41.4331 202.367 41.0451 202.388 40.5383C202.414 40.0361 201.971 39.6116 201.397 39.5888Z" fill="#027A79" fill-opacity="0.10"/>
</g>
<path fill-rule="evenodd" clip-rule="evenodd" d="M155.03 19.5971C152.738 19.0835 150.339 18.8244 148.012 18.5871C147.51 18.5373 147.045 18.815 147.009 19.2062C146.938 19.5977 147.296 19.9557 147.761 20.0055C150.017 20.234 152.344 20.4785 154.529 20.9729C154.994 21.0802 155.496 20.8594 155.639 20.4796C155.782 20.1002 155.496 19.7047 155.03 19.5971Z" fill="#027A79" fill-opacity="0.10"/>
<path fill-rule="evenodd" clip-rule="evenodd" d="M161.976 12.3155C158.288 9.30963 154.135 6.69068 150.518 3.60417C150.196 3.31591 149.623 3.30047 149.265 3.56957C148.907 3.83896 148.871 4.29194 149.229 4.5802C152.846 7.67557 156.999 10.3031 160.687 13.3178C161.046 13.5992 161.618 13.6032 161.976 13.3264C162.299 13.0499 162.334 12.5969 161.976 12.3155Z" fill="#027A79" fill-opacity="0.10"/>
<path fill-rule="evenodd" clip-rule="evenodd" d="M168.888 0.753757C168.995 2.47417 169.102 4.19459 169.21 5.91529C169.21 6.30936 169.64 6.61363 170.141 6.59447C170.642 6.57503 171 6.23958 171 5.84522C170.893 4.12195 170.785 2.39896 170.678 0.675971C170.642 0.2819 170.212 -0.0203736 169.711 0.00107435C169.246 0.0225223 168.852 0.359972 168.888 0.753757Z" fill="#027A79" fill-opacity="0.10"/>
<g clip-path="url(#clip5_498_337)">
<path fill-rule="evenodd" clip-rule="evenodd" d="M139.674 50.2883C140.611 49.9544 141.597 49.5107 142.357 48.8683C143.26 48.1053 143.628 47.1227 143.874 46.0883C144.191 44.7594 144.317 43.3437 144.701 42.0127C144.843 41.5183 145.117 41.3315 145.234 41.2486C145.531 41.0391 145.831 40.9831 146.113 41.0041C146.448 41.0284 146.907 41.1549 147.209 41.7154C147.252 41.7956 147.308 41.9179 147.346 42.0853C147.373 42.2081 147.391 42.592 147.42 42.7503C147.493 43.1402 147.554 43.53 147.611 43.922C147.801 45.2267 147.91 46.3349 148.51 47.5335C149.325 49.1607 150.141 50.1563 151.248 50.5973C152.319 51.0238 153.599 50.9436 155.234 50.6092C155.39 50.5715 155.544 50.5392 155.696 50.5128C156.417 50.3868 157.106 50.8601 157.248 51.5784C157.39 52.2962 156.931 52.9957 156.217 53.1534C156.068 53.1863 155.921 53.2175 155.775 53.246C153.565 53.7931 151.007 55.7456 149.521 57.4552C149.062 57.9824 148.391 59.4561 147.707 60.3963C147.202 61.0898 146.634 61.547 146.158 61.7085C145.839 61.8173 145.569 61.8006 145.347 61.7457C145.024 61.666 144.756 61.4909 144.55 61.2126C144.438 61.0602 144.334 60.8561 144.285 60.5955C144.261 60.47 144.258 60.1513 144.259 60.007C144.119 59.5272 143.949 59.0587 143.824 58.5746C143.527 57.4196 142.945 56.6884 142.254 55.7224C141.607 54.8183 140.913 54.2503 139.894 53.7969C139.762 53.7646 138.693 53.5029 138.316 53.3526C137.764 53.1324 137.502 52.7636 137.406 52.5649C137.244 52.2278 137.227 51.9333 137.26 51.6877C137.308 51.3254 137.47 51.0152 137.759 50.7648C137.938 50.6092 138.205 50.4579 138.562 50.3841C138.839 50.3265 139.571 50.2931 139.674 50.2883ZM145.945 48.4058C145.994 48.5162 146.047 48.6271 146.103 48.7391C147.296 51.1223 148.63 52.4529 150.252 53.0985L150.307 53.1195C149.222 53.925 148.24 54.8253 147.489 55.6885C147.18 56.0439 146.771 56.7821 146.329 57.5392C145.927 56.2334 145.27 55.3105 144.444 54.1555C143.813 53.274 143.152 52.6107 142.339 52.0701C142.97 51.7464 143.571 51.3674 144.095 50.9247C144.967 50.1876 145.544 49.3336 145.945 48.4058Z" fill="#027A79" fill-opacity="0.10"/>
</g>
<g clip-path="url(#clip6_498_337)">
<path fill-rule="evenodd" clip-rule="evenodd" d="M67.6742 118.288C68.6111 117.954 69.5971 117.511 70.3574 116.868C71.2604 116.105 71.6276 115.123 71.8742 114.088C72.1909 112.759 72.3174 111.344 72.7013 110.013C72.8435 109.518 73.117 109.331 73.2344 109.249C73.5311 109.039 73.831 108.983 74.1131 109.004C74.4475 109.028 74.9069 109.155 75.2089 109.715C75.252 109.796 75.308 109.918 75.3457 110.085C75.3731 110.208 75.3909 110.592 75.42 110.75C75.4927 111.14 75.5535 111.53 75.6106 111.922C75.8007 113.227 75.91 114.335 76.5104 115.533C77.3251 117.161 78.1414 118.156 79.2485 118.597C80.3189 119.024 81.5989 118.944 83.2342 118.609C83.3898 118.572 83.5438 118.539 83.6961 118.513C84.4171 118.387 85.1064 118.86 85.248 119.578C85.3896 120.296 84.9314 120.996 84.2169 121.153C84.0677 121.186 83.9207 121.217 83.7753 121.246C81.5655 121.793 79.0072 123.746 77.5205 125.455C77.0623 125.982 76.3914 127.456 75.707 128.396C75.2019 129.09 74.6344 129.547 74.1578 129.709C73.8385 129.817 73.5693 129.801 73.3469 129.746C73.0239 129.666 72.7557 129.491 72.55 129.213C72.438 129.06 72.3341 128.856 72.2845 128.595C72.2608 128.47 72.2582 128.151 72.2587 128.007C72.1192 127.527 71.9485 127.059 71.8242 126.575C71.5275 125.42 70.9454 124.688 70.254 123.722C69.6073 122.818 68.9127 122.25 67.8945 121.797C67.762 121.765 66.6932 121.503 66.3157 121.353C65.7643 121.132 65.5015 120.764 65.4062 120.565C65.2442 120.228 65.2275 119.933 65.2598 119.688C65.3077 119.325 65.4703 119.015 65.7589 118.765C65.9377 118.609 66.2048 118.458 66.5623 118.384C66.8386 118.326 67.5714 118.293 67.6742 118.288ZM73.9446 116.406C73.9942 116.516 74.0469 116.627 74.1029 116.739C75.2962 119.122 76.6305 120.453 78.2523 121.099L78.3067 121.12C77.2217 121.925 76.2395 122.825 75.4889 123.689C75.1798 124.044 74.7706 124.782 74.3285 125.539C73.9269 124.233 73.2699 123.311 72.4439 122.156C71.8129 121.274 71.1516 120.611 70.3391 120.07C70.9696 119.746 71.5711 119.367 72.095 118.925C72.9673 118.188 73.544 117.334 73.9446 116.406Z" fill="#027A79" fill-opacity="0.10"/>
</g>
<defs>
<clip-path id="clip0_498_337">
<rect width="24" height="21" fill="white" transform="translate(134 97)"/>
</clip-path>
<clip-path id="clip1_498_337">
<rect width="21" height="21" fill="white" transform="translate(14 84)"/>
</clip-path>
<clip-path id="clip2_498_337">
<rect width="21" height="21" fill="white" transform="translate(94 9)"/>
</clip-path>
<clip-path id="clip3_498_337">
<rect width="24" height="21" fill="white" transform="translate(51 51)"/>
</clip-path>
<clip-path id="clip4_498_337">
<rect width="24" height="21" fill="white" transform="translate(188 32)"/>
</clip-path>
<clip-path id="clip5_498_337">
<rect width="21" height="21" fill="white" transform="translate(137 41)"/>
</clip-path>
<clip-path id="clip6_498_337">
<rect width="21" height="21" fill="white" transform="translate(65 109)"/>
</clip-path>
</defs>
</svg>
