<svg width="110" height="132" viewBox="0 0 110 132" fill="none" xmlns="http://www.w3.org/2000/svg">
<path fill-rule="evenodd" clip-rule="evenodd" d="M2.58083 12.4215C17.2301 15.7358 23.7183 20.6219 25.9466 26.58C28.1797 32.538 26.1485 39.2834 24.1126 46.0288C22.6798 50.6843 21.218 55.4347 20.9786 59.7977C20.7262 64.3504 21.7974 68.6099 25.4935 72.2826C26.3806 73.1299 27.8155 73.8789 29.7248 74.3401C32.3159 75.0811 35.8385 75.5313 39.9693 75.6931C55.6409 76.5354 80.2844 74.4731 95.3157 76.6471C98.7709 77.0978 101.703 77.8359 103.864 78.8643C105.744 79.7997 107.018 80.9287 107.351 82.4434C107.622 83.6741 107.263 85.0989 106.276 86.907C104.589 89.9524 101.132 93.5784 95.5156 98.1673C90.5991 102.183 85.0527 105.539 80.0219 109.46C72.1462 115.582 64.1658 121.988 57.862 129.141C57.4636 129.618 57.5083 130.281 57.961 130.657C58.4156 131.128 59.1068 131.029 59.5051 130.552C65.7196 123.494 73.5964 117.183 81.3614 111.158C86.4059 107.331 91.9658 103.881 96.8953 99.8653C102.806 95.0848 106.409 91.1732 108.184 87.9376C109.504 85.6532 109.853 83.6591 109.489 81.9549C109.115 80.2508 107.981 78.7419 106.17 77.6163C103.774 76.1155 100.114 75.0969 95.6244 74.4636C80.5397 72.2899 55.8074 74.3537 40.0802 73.5118C36.1389 73.3488 32.775 72.8971 30.303 72.2501C28.8374 71.8808 27.7065 71.4142 27.025 70.6603C23.8315 67.553 22.9465 63.8619 23.1636 59.8783C23.3949 55.705 24.8272 51.1444 26.2061 46.5841C28.3887 39.4585 30.3876 32.1441 27.9956 25.8078C25.6001 19.4716 18.8106 13.8287 3.06191 10.3322C2.47188 10.1466 1.88571 10.5296 1.75333 11.0994C1.62094 11.6691 1.99144 12.3307 2.58083 12.4215Z" fill="#027A79" fill-opacity="0.5"/>
<path fill-rule="evenodd" clip-rule="evenodd" d="M3.41161 9.26445C3.56378 9.16861 3.97832 8.97582 4.32121 8.87869C5.98766 8.29857 8.57571 7.71278 9.33495 7.51802C16.0482 5.38683 23.5672 3.62944 30.7731 3.58078C31.3773 3.5767 31.8633 3.09881 31.8583 2.52997C31.8526 1.86632 31.359 1.39541 30.7548 1.39949C23.3404 1.44956 15.6029 3.30323 8.69357 5.34094C7.92432 5.63057 5.29714 6.21718 3.60464 6.79748C2.99585 6.99122 2.49251 7.1848 2.17632 7.37655C1.91698 7.56793 1.73938 7.75838 1.62813 7.94876C1.33927 8.32996 1.20096 8.90032 1.22376 9.46904C1.24956 10.1325 1.47383 10.8893 1.85091 11.6453C2.58914 13.2521 3.93225 15.1391 4.99442 16.6489C5.60433 17.4981 6.12476 18.2533 6.28551 18.7262C7.66467 22.7938 6.25427 27.2592 1.60051 30.7038C1.11739 31.0863 1.01645 31.7513 1.3774 32.2229C1.73835 32.6945 2.42487 32.7845 2.90982 32.4968C8.49073 28.2874 10.015 22.9674 8.35882 18.0484C7.95958 16.8185 5.7833 14.1788 4.38842 11.818C3.98882 11.0622 3.65976 10.4002 3.49718 9.83238C3.4497 9.64307 3.41707 9.54848 3.41105 9.3589C3.40868 9.35891 3.4045 9.2645 3.41161 9.26445Z" fill="#027A79" fill-opacity="0.5"/>
</svg>
